<?xml version="1.0" standalone="no"?>
<svg xmlns="http://www.w3.org/2000/svg" viewBox="0 0 136.16 53" width="136.16" height="53"><rect fill="none" stroke="#000000" stroke-width="3" width="133.16" height="50" x="1.5" y="1.5"></rect><g fill="#000000" color="#000000" transform="translate(12, 12.001) scale(0.29)"><svg width="100.0" height="100.0" x="0.0" y="0.0" viewBox="0 0 100 100"><style type="text/css">
	.st0{fill:currentColor;}
</style><path class="st0" d="M75.2,38.9c-4.7-15.1-18.9-26.1-35.6-26.1C19,12.7,2.3,29.4,2.3,50S19,87.3,39.6,87.3c16.7,0,30.8-11,35.6-26.1  L97.7,50L75.2,38.9z M39.7,41.7c0,4.3-2.3,6.7-6.5,8c4.2,1.2,6.5,3.6,6.5,7.9c0,1.3-0.2,3.2-0.2,4.2c0,3.6,1,5.2,7.4,6.7L45.2,75  C33.6,73.5,30,69.9,30,63.5c0-0.9,0.2-3.3,0.2-4.3c0-4.5-2.3-5.9-7-5.9h-1.1V46h1.1c4.6,0,7-1.3,7-5.9c0-1-0.2-3.4-0.2-4.3  c0-6.4,3.6-10,15.2-11.5l1.7,6.5c-6.3,1.5-7.4,3.1-7.4,6.7C39.6,38.5,39.7,40.4,39.7,41.7z"></path></svg></g><line x1="51.5" y1="0" x2="51.5" y2="100%" stroke="#000000" stroke-width="3"></line><path fill="#000000" fill-rule="nonzero" d="M10.79 1.62Q12.26 3.10 12.26 5.95Q12.26 8.81 10.79 10.28Q9.31 11.76 6.62 11.76L6.62 11.76L3.34 11.76L3.34 17.23L0 17.23L0 0.14L6.62 0.14Q9.31 0.14 10.79 1.62ZM8.93 5.95L8.93 5.95Q8.93 3.12 6.46 3.12L6.46 3.12L3.34 3.12L3.34 8.76L6.46 8.76Q7.66 8.76 8.29 8.11Q8.93 7.46 8.93 5.95ZM22.56 1.58L28.03 17.23L24.55 17.23L23.59 14.28L17.86 14.28L16.92 17.23L13.44 17.23L18.91 1.58Q19.27 0.77 19.72 0.46Q20.16 0.14 20.81 0.14Q21.46 0.14 21.85 0.43Q22.25 0.72 22.56 1.58L22.56 1.58ZM18.70 11.47L22.82 11.47L20.81 4.70L18.70 11.47ZM38.78 0.14L42.26 0.14L36.89 16.27Q36.46 17.38 35.35 17.38L35.35 17.38Q34.20 17.38 33.77 16.27L33.77 16.27L28.46 0.14L31.92 0.14L35.35 11.28L38.78 0.14ZM43.27 9.19L43.27 9.19L43.27 7.08Q43.27 3.74 45.02 1.87Q46.78 0 49.87 0Q52.97 0 54.84 1.87L54.84 1.87Q56.16 3.19 56.16 5.83L56.16 5.83L53.04 5.83Q53.04 2.98 49.99 2.98L49.99 2.98Q49.08 2.98 48.44 3.32Q47.81 3.67 47.50 4.13Q47.18 4.58 47.02 5.47Q46.85 6.36 46.82 6.96Q46.80 7.56 46.80 8.57Q46.80 9.58 46.81 9.92Q46.82 10.27 46.88 11.05Q46.94 11.83 47.08 12.17Q47.21 12.50 47.46 13.03Q47.71 13.56 48.10 13.78L48.10 13.78Q49.08 14.40 50.33 14.40L50.33 14.40Q52.42 14.40 53.28 12.62L53.28 12.62L53.28 11.47L51.22 11.47L51.22 8.69L56.14 8.69L56.14 13.85Q55.39 15.60 53.78 16.49Q52.18 17.38 50.14 17.38L50.14 17.38Q46.51 17.38 44.89 15.35Q43.27 13.32 43.27 9.19Z" transform="translate(65 17.884)"></path></svg>